<?xml version="1.0" encoding="utf-8"?>
<!-- Generator: Adobe Illustrator 16.0.0, SVG Export Plug-In . SVG Version: 6.00 Build 0)  -->
<!DOCTYPE svg PUBLIC "-//W3C//DTD SVG 1.1//EN" "http://www.w3.org/Graphics/SVG/1.1/DTD/svg11.dtd">
<svg version="1.1" id="Layer_1" xmlns="http://www.w3.org/2000/svg" xmlns:xlink="http://www.w3.org/1999/xlink" x="0px" y="0px"
	 width="72.764px" height="63.668px" viewBox="-6.382 -4.084 72.764 63.668" enable-background="new -6.382 -4.084 72.764 63.668"
	 xml:space="preserve">
<path fill="#FFFFFF" d="M34.548,39.88c0,0.833-0.303,1.514-0.681,1.514H9.455c-0.37,0-0.671-0.681-0.671-1.514v-6.065
	c0-0.83,0.301-1.517,0.671-1.517h24.412c0.378,0,0.681,0.687,0.681,1.517V39.88z M2.713,33.814c0-0.83-0.676-1.517-1.525-1.517
	h-6.045c-0.849,0-1.525,0.687-1.525,1.517v6.065c0,0.833,0.676,1.514,1.525,1.514h6.045c0.849,0,1.525-0.681,1.525-1.514V33.814z
	 M34.548,52.006c0-0.831-0.303-1.517-0.681-1.517H9.455c-0.37,0-0.671,0.686-0.671,1.517v6.067c0,0.83,0.301,1.511,0.671,1.511
	h24.412c0.378,0,0.681-0.681,0.681-1.511V52.006z M2.713,52.006c0-0.831-0.676-1.517-1.525-1.517h-6.045
	c-0.849,0-1.525,0.686-1.525,1.517v6.067c0,0.83,0.676,1.511,1.525,1.511h6.045c0.849,0,1.525-0.681,1.525-1.511V52.006z
	 M34.548,15.623c0-0.83-0.303-1.517-0.681-1.517H9.455c-0.37,0-0.671,0.687-0.671,1.517v6.067c0,0.828,0.301,1.512,0.671,1.512
	h24.412c0.378,0,0.681-0.684,0.681-1.512V15.623z M2.713,15.623c0-0.83-0.676-1.517-1.525-1.517h-6.045
	c-0.849,0-1.525,0.687-1.525,1.517v6.067c0,0.828,0.676,1.512,1.525,1.512h6.045c0.849,0,1.525-0.684,1.525-1.512V15.623z
	 M34.548-2.569c0-0.83-0.303-1.515-0.681-1.515H9.455c-0.37,0-0.671,0.685-0.671,1.515v6.067c0,0.83,0.301,1.512,0.671,1.512h24.412
	c0.378,0,0.681-0.682,0.681-1.512V-2.569z M66.382,39.88c0,0.833-0.303,1.514-0.68,1.514h-24.41c-0.373,0-0.674-0.681-0.674-1.514
	v-6.065c0-0.83,0.301-1.517,0.674-1.517h24.41c0.377,0,0.68,0.687,0.68,1.517V39.88z M66.382,15.623c0-0.83-0.303-1.517-0.68-1.517
	h-24.41c-0.373,0-0.674,0.687-0.674,1.517v6.067c0,0.828,0.301,1.512,0.674,1.512h24.41c0.377,0,0.68-0.684,0.68-1.512V15.623z
	 M66.382-2.569c0-0.83-0.303-1.515-0.68-1.515h-24.41c-0.373,0-0.674,0.685-0.674,1.515v6.067c0,0.83,0.301,1.512,0.674,1.512h24.41
	c0.377,0,0.68-0.682,0.68-1.512V-2.569z M2.713-2.569c0-0.83-0.676-1.515-1.525-1.515h-6.045c-0.849,0-1.525,0.685-1.525,1.515
	v6.067c0,0.83,0.676,1.512,1.525,1.512h6.045c0.849,0,1.525-0.682,1.525-1.512V-2.569z"/>
</svg>
