<?xml version="1.0" encoding="UTF-8" standalone="no"?>
<svg
   xmlns:dc="http://purl.org/dc/elements/1.1/"
   xmlns:cc="http://creativecommons.org/ns#"
   xmlns:rdf="http://www.w3.org/1999/02/22-rdf-syntax-ns#"
   xmlns:svg="http://www.w3.org/2000/svg"
   xmlns="http://www.w3.org/2000/svg"
   xmlns:sodipodi="http://sodipodi.sourceforge.net/DTD/sodipodi-0.dtd"
   xmlns:inkscape="http://www.inkscape.org/namespaces/inkscape"
   id="Слой_1"
   version="1.1"
   viewBox="0 0 52.130677 52.130677"
   xml:space="preserve"
   inkscape:version="0.91 r13725"
   sodipodi:docname="list.svg"
   width="52.130676"
   height="52.130676"><metadata
     id="metadata122"><rdf:RDF><cc:Work
         rdf:about=""><dc:format>image/svg+xml</dc:format><dc:type
           rdf:resource="http://purl.org/dc/dcmitype/StillImage" /><dc:title></dc:title></cc:Work></rdf:RDF></metadata><defs
     id="defs120" /><sodipodi:namedview
     pagecolor="#ffffff"
     bordercolor="#666666"
     borderopacity="1"
     objecttolerance="10"
     gridtolerance="10"
     guidetolerance="10"
     inkscape:pageopacity="0"
     inkscape:pageshadow="2"
     inkscape:window-width="1060"
     inkscape:window-height="729"
     id="namedview118"
     showgrid="false"
     inkscape:zoom="4.72"
     inkscape:cx="17.808645"
     inkscape:cy="17.808644"
     inkscape:window-x="0"
     inkscape:window-y="0"
     inkscape:window-maximized="0"
     inkscape:current-layer="Слой_1"
     fit-margin-top="0"
     fit-margin-left="0"
     fit-margin-right="0"
     fit-margin-bottom="0" /><style
     type="text/css"
     id="style3">
	.st0{display:none;}
	.st1{display:inline;}
	.st2{display:inline;fill:none;stroke:#000000;stroke-width:3;stroke-miterlimit:10;}
	.st3{display:inline;fill:none;stroke:#000000;stroke-width:5;stroke-linecap:round;stroke-miterlimit:10;}
	.st4{display:inline;fill:none;stroke:#000000;stroke-width:3;stroke-linecap:round;stroke-miterlimit:10;}
	.st5{fill:none;stroke:#000000;stroke-width:3;stroke-linecap:round;stroke-miterlimit:10;}
	.st6{display:inline;stroke:#000000;stroke-width:3;stroke-linecap:round;stroke-miterlimit:10;}
	.st7{display:none;fill:none;stroke:#000000;stroke-width:3;stroke-linecap:round;stroke-miterlimit:10;}
</style><g
     class="st0"
     id="поиск"
     style="display:none"
     transform="translate(1.0653395,1.0653395)"><g
       class="st1"
       id="g6"
       style="display:inline"><g
         id="g8"><path
           d="m 19.5,8.2 c 6.2,0 11.3,5.1 11.3,11.3 0,6.2 -5.1,11.3 -11.3,11.3 -6.2,0 -11.3,-5 -11.3,-11.3 0,-6.3 5,-11.3 11.3,-11.3 m 0,-3 c -7.9,0 -14.3,6.4 -14.3,14.3 0,7.9 6.4,14.3 14.3,14.3 7.9,0 14.3,-6.4 14.3,-14.3 0,-7.9 -6.5,-14.3 -14.3,-14.3 l 0,0 z"
           id="path10"
           inkscape:connector-curvature="0" /></g></g><line
       class="st2"
       x1="28.799999"
       x2="32.099998"
       y1="28.700001"
       y2="32"
       id="line12"
       style="display:inline;fill:none;stroke:#000000;stroke-width:3;stroke-miterlimit:10" /><line
       class="st3"
       x1="44.799999"
       x2="33"
       y1="44.799999"
       y2="33"
       id="line14"
       style="display:inline;fill:none;stroke:#000000;stroke-width:5;stroke-linecap:round;stroke-miterlimit:10" /></g><g
     class="st0"
     id="активы"
     style="display:none"
     transform="translate(1.0653395,1.0653395)"><path
       class="st4"
       d="m 46.3,13.9 -42.6,0 c -0.3,0 -0.5,-0.2 -0.5,-0.5 l 0,-6.8 c 0,-0.6 0.4,-1 1,-1 l 41.7,0 c 0.6,0 1,0.4 1,1 l 0,6.8 c -0.1,0.3 -0.3,0.5 -0.6,0.5 z"
       id="path17"
       inkscape:connector-curvature="0"
       style="display:inline;fill:none;stroke:#000000;stroke-width:3;stroke-linecap:round;stroke-miterlimit:10" /><path
       class="st4"
       d="m 42.5,44.4 -35,0 c -0.6,0 -1,-0.4 -1,-1 l 0,-29.5 37.1,0 0,29.5 c -0.1,0.5 -0.5,1 -1.1,1 z"
       id="path19"
       inkscape:connector-curvature="0"
       style="display:inline;fill:none;stroke:#000000;stroke-width:3;stroke-linecap:round;stroke-miterlimit:10" /><path
       class="st4"
       d="m 32.3,26.5 -14.1,0 c -1.6,0 -2.9,-1.3 -2.9,-2.9 l 0,0 c 0,-1.6 1.3,-2.9 2.9,-2.9 l 14.1,0 c 1.6,0 2.9,1.3 2.9,2.9 l 0,0 c 0,1.5 -1.3,2.9 -2.9,2.9 z"
       id="path21"
       inkscape:connector-curvature="0"
       style="display:inline;fill:none;stroke:#000000;stroke-width:3;stroke-linecap:round;stroke-miterlimit:10" /></g><g
     class="st0"
     id="заявки"
     style="display:none"
     transform="translate(1.0653395,1.0653395)"><path
       class="st4"
       d="m 11.6,41.3 -3,0 c -0.6,0 -1,-0.4 -1,-1 l 0,-32 c 0,-0.6 0.4,-1 1,-1 l 3,0 0,34 z"
       id="path24"
       inkscape:connector-curvature="0"
       style="display:inline;fill:none;stroke:#000000;stroke-width:3;stroke-linecap:round;stroke-miterlimit:10" /><path
       class="st4"
       d="m 32.2,6.1 -19.6,0 c -0.6,0 -1,0.4 -1,1 l 0,35.8 c 0,0.6 0.4,1 1,1 l 28.9,0 c 0.6,0 1,-0.4 1,-1 l 0,-27.9 c 0,-0.3 -0.1,-0.6 -0.4,-0.8 L 32.9,6.4 C 32.7,6.2 32.4,6.1 32.2,6.1 Z"
       id="path26"
       inkscape:connector-curvature="0"
       style="display:inline;fill:none;stroke:#000000;stroke-width:3;stroke-linecap:round;stroke-miterlimit:10" /><line
       class="st4"
       x1="32.200001"
       x2="32.200001"
       y1="6.0999999"
       y2="14.9"
       id="line28"
       style="display:inline;fill:none;stroke:#000000;stroke-width:3;stroke-linecap:round;stroke-miterlimit:10" /><line
       class="st4"
       x1="42.400002"
       x2="32.200001"
       y1="15"
       y2="15"
       id="line30"
       style="display:inline;fill:none;stroke:#000000;stroke-width:3;stroke-linecap:round;stroke-miterlimit:10" /><g
       class="st1"
       id="g32"
       style="display:inline"><line
         class="st5"
         x1="19"
         x2="36"
         y1="20.9"
         y2="20.9"
         id="line34"
         style="fill:none;stroke:#000000;stroke-width:3;stroke-linecap:round;stroke-miterlimit:10" /><line
         class="st5"
         x1="19"
         x2="33.299999"
         y1="26"
         y2="26"
         id="line36"
         style="fill:none;stroke:#000000;stroke-width:3;stroke-linecap:round;stroke-miterlimit:10" /><line
         class="st5"
         x1="19"
         x2="36"
         y1="30.9"
         y2="30.9"
         id="line38"
         style="fill:none;stroke:#000000;stroke-width:3;stroke-linecap:round;stroke-miterlimit:10" /><line
         class="st5"
         x1="19"
         x2="33.299999"
         y1="35.599998"
         y2="35.599998"
         id="line40"
         style="fill:none;stroke:#000000;stroke-width:3;stroke-linecap:round;stroke-miterlimit:10" /></g></g><g
     class="st0"
     id="регистрация"
     style="display:none"
     transform="translate(1.0653395,1.0653395)"><path
       class="st4"
       d="m 38.5,32.6 0,10.7 c 0,0.6 -0.4,1 -0.9,1 l -28.3,0 c -0.5,0 -0.9,-0.4 -0.9,-1 l 0,-36.7 c 0,-0.6 0.4,-1 0.9,-1 l 28.3,0 c 0.5,0 0.9,0.4 0.9,1 l 0,10.5"
       id="path43"
       inkscape:connector-curvature="0"
       style="display:inline;fill:none;stroke:#000000;stroke-width:3;stroke-linecap:round;stroke-miterlimit:10" /><path
       class="st6"
       d="m 28.5,30 0,-10 c 0,-0.2 -0.3,-0.4 -0.5,-0.2 l -6.6,5 c -0.2,0.1 -0.2,0.4 0,0.5 l 6.6,5 c 0.3,0.1 0.5,-0.1 0.5,-0.3 z"
       id="path45"
       inkscape:connector-curvature="0"
       style="display:inline;stroke:#000000;stroke-width:3;stroke-linecap:round;stroke-miterlimit:10" /><line
       class="st4"
       x1="28.5"
       x2="45.599998"
       y1="25"
       y2="25"
       id="line47"
       style="display:inline;fill:none;stroke:#000000;stroke-width:3;stroke-linecap:round;stroke-miterlimit:10" /></g><g
     class="st0"
     id="оповещение"
     style="display:none"
     transform="translate(1.0653395,1.0653395)"><path
       class="st4"
       d="m 9.9,16.1 31.3,0 0,-4.6 c 0,-0.6 -0.4,-1 -1,-1 l -35.8,0 c -0.6,0 -1,0.4 -1,1 l 0,23.2 c 0,0.6 0.4,1 1,1 l 4.6,0 0,-18.6 c -0.1,-0.6 0.4,-1 0.9,-1 z"
       id="path50"
       inkscape:connector-curvature="0"
       style="display:inline;fill:none;stroke:#000000;stroke-width:3;stroke-linecap:round;stroke-miterlimit:10" /><path
       class="st4"
       d="m 46,42.8 -36.1,0 c -0.6,0 -1,-0.4 -1,-1 l 0,-24.7 c 0,-0.6 0.4,-1 1,-1 l 36.1,0 c 0.6,0 1,0.4 1,1 l 0,24.7 c 0,0.6 -0.4,1 -1,1 z"
       id="path52"
       inkscape:connector-curvature="0"
       style="display:inline;fill:none;stroke:#000000;stroke-width:3;stroke-linecap:round;stroke-miterlimit:10" /><path
       class="st4"
       d="m 46,42.8 -36.1,0 c -0.6,0 -1,-0.4 -1,-1 l 0,-24.7 c 0,-0.6 0.4,-1 1,-1 l 15.3,14.6 c 1.5,1.5 4,1.5 5.5,0 L 46,16.1 c 0.6,0 1,0.4 1,1 l 0,24.7 c 0,0.6 -0.4,1 -1,1 z"
       id="path54"
       inkscape:connector-curvature="0"
       style="display:inline;fill:none;stroke:#000000;stroke-width:3;stroke-linecap:round;stroke-miterlimit:10" /><line
       class="st4"
       x1="22.299999"
       x2="8.8999996"
       y1="27.9"
       y2="38.599998"
       id="line56"
       style="display:inline;fill:none;stroke:#000000;stroke-width:3;stroke-linecap:round;stroke-miterlimit:10" /><line
       class="st4"
       x1="33.599998"
       x2="47"
       y1="28.1"
       y2="38.900002"
       id="line58"
       style="display:inline;fill:none;stroke:#000000;stroke-width:3;stroke-linecap:round;stroke-miterlimit:10" /></g><g
     class="st0"
     id="синхронизация"
     style="display:none"
     transform="translate(1.0653395,1.0653395)"><path
       class="st6"
       d="m 30.8,36.6 5.8,8.1 c 0.1,0.2 0.5,0.2 0.5,-0.1 l 2.5,-7.9 c 0.1,-0.2 -0.1,-0.4 -0.3,-0.4 L 31,36.1 c -0.2,0 -0.3,0.3 -0.2,0.5 z"
       id="path61"
       inkscape:connector-curvature="0"
       style="display:inline;stroke:#000000;stroke-width:3;stroke-linecap:round;stroke-miterlimit:10" /><path
       class="st6"
       d="M 18.7,12.6 12.9,4.5 C 12.8,4.3 12.4,4.3 12.4,4.6 l -2.5,7.9 c -0.1,0.2 0.1,0.4 0.3,0.4 l 8.3,0.2 c 0.2,0 0.4,-0.3 0.2,-0.5 z"
       id="path63"
       inkscape:connector-curvature="0"
       style="display:inline;stroke:#000000;stroke-width:3;stroke-linecap:round;stroke-miterlimit:10" /><path
       class="st4"
       d="m 39.4,36.5 c -3.5,4.3 -8.7,7 -14.6,7 C 14.4,43.5 6,35.1 6,24.7 6,23.2 6.2,21.8 6.5,20.4"
       id="path65"
       inkscape:connector-curvature="0"
       style="display:inline;fill:none;stroke:#000000;stroke-width:3;stroke-linecap:round;stroke-miterlimit:10" /><path
       class="st4"
       d="m 10.1,12.6 c 3.5,-4.3 8.7,-7 14.6,-7 10.4,0 18.8,8.4 18.8,18.8 0,1.5 -0.2,2.9 -0.5,4.3"
       id="path67"
       inkscape:connector-curvature="0"
       style="display:inline;fill:none;stroke:#000000;stroke-width:3;stroke-linecap:round;stroke-miterlimit:10" /></g><path
     class="st7"
     d="m 26.16534,6.3653395 c -11.5,0 -20.9000005,8.1000005 -20.9000005,18.2000005 0,5.8 3.1,11 8.0000005,14.3 l -4.7000005,7.2 c -0.2,0.2 0.1,0.5 0.3,0.4 4.7000005,-0.6 8.9000005,-2 12.5000005,-4.3 1.5,0.3 3.1,0.5 4.8,0.5 11.5,0 20.9,-8.1 20.9,-18.2 0,-10.1 -9.3,-18.1000005 -20.9,-18.1000005 z"
     id="взаимодействие"
     inkscape:connector-curvature="0"
     style="display:none;fill:none;stroke:#000000;stroke-width:3;stroke-linecap:round;stroke-miterlimit:10" /><g
     id="SLA"
     style="stroke:#009ee0;stroke-width:1.88999999;stroke-miterlimit:4;stroke-dasharray:none;stroke-opacity:1"
     transform="matrix(1.2811668,0,0,1.2811668,-5.9638315,-5.9638315)"><path
       class="st5"
       d="m 43.4,44.4 -36.8,0 c -0.6,0 -1,-0.4 -1,-1 l 0,-36.8 c 0,-0.6 0.4,-1 1,-1 l 36.8,0 c 0.6,0 1,0.4 1,1 l 0,36.8 c 0,0.5 -0.5,1 -1,1 z"
       id="path71"
       style="fill:none;stroke:#009ee0;stroke-width:1.88999999;stroke-linecap:round;stroke-miterlimit:4;stroke-dasharray:none;stroke-opacity:1"
       inkscape:connector-curvature="0" /><g
       id="g73"
       style="stroke:#009ee0;stroke-width:1.88999999;stroke-miterlimit:4;stroke-dasharray:none;stroke-opacity:1"><g
         id="g75"
         style="stroke:#009ee0;stroke-width:1.88999999;stroke-miterlimit:4;stroke-dasharray:none;stroke-opacity:1"><line
           class="st5"
           x1="11.9"
           x2="24.4"
           y1="36.200001"
           y2="36.200001"
           id="line77"
           style="fill:none;stroke:#009ee0;stroke-width:1.88999999;stroke-linecap:round;stroke-miterlimit:4;stroke-dasharray:none;stroke-opacity:1" /><line
           class="st7"
           x1="30.700001"
           x2="33.200001"
           y1="34.799999"
           y2="37.5"
           id="line79"
           style="display:none;fill:none;stroke:#009ee0;stroke-width:1.88999999;stroke-linecap:round;stroke-miterlimit:4;stroke-dasharray:none;stroke-opacity:1" /><line
           class="st7"
           x1="38.099998"
           x2="33.200001"
           y1="32.5"
           y2="37.5"
           id="line81"
           style="display:none;fill:none;stroke:#009ee0;stroke-width:1.88999999;stroke-linecap:round;stroke-miterlimit:4;stroke-dasharray:none;stroke-opacity:1" /></g><g
         id="g83"
         style="stroke:#009ee0;stroke-width:1.88999999;stroke-miterlimit:4;stroke-dasharray:none;stroke-opacity:1"><line
           class="st5"
           x1="11.9"
           x2="24.4"
           y1="26.200001"
           y2="26.200001"
           id="line85"
           style="fill:none;stroke:#009ee0;stroke-width:1.88999999;stroke-linecap:round;stroke-miterlimit:4;stroke-dasharray:none;stroke-opacity:1" /><line
           class="st5"
           x1="30.700001"
           x2="33.200001"
           y1="24.799999"
           y2="27.5"
           id="line87"
           style="fill:none;stroke:#009ee0;stroke-width:1.88999999;stroke-linecap:round;stroke-miterlimit:4;stroke-dasharray:none;stroke-opacity:1" /><line
           class="st5"
           x1="38.099998"
           x2="33.200001"
           y1="22.5"
           y2="27.5"
           id="line89"
           style="fill:none;stroke:#009ee0;stroke-width:1.88999999;stroke-linecap:round;stroke-miterlimit:4;stroke-dasharray:none;stroke-opacity:1" /></g><g
         id="g91"
         style="stroke:#009ee0;stroke-width:1.88999999;stroke-miterlimit:4;stroke-dasharray:none;stroke-opacity:1"><line
           class="st5"
           x1="11.9"
           x2="24.4"
           y1="16.200001"
           y2="16.200001"
           id="line93"
           style="fill:none;stroke:#009ee0;stroke-width:1.88999999;stroke-linecap:round;stroke-miterlimit:4;stroke-dasharray:none;stroke-opacity:1" /><line
           class="st5"
           x1="30.700001"
           x2="33.200001"
           y1="14.8"
           y2="17.5"
           id="line95"
           style="fill:none;stroke:#009ee0;stroke-width:1.88999999;stroke-linecap:round;stroke-miterlimit:4;stroke-dasharray:none;stroke-opacity:1" /><line
           class="st5"
           x1="38.099998"
           x2="33.200001"
           y1="12.5"
           y2="17.5"
           id="line97"
           style="fill:none;stroke:#009ee0;stroke-width:1.88999999;stroke-linecap:round;stroke-miterlimit:4;stroke-dasharray:none;stroke-opacity:1" /></g></g></g><g
     class="st0"
     id="отчет"
     style="display:none"
     transform="translate(1.0653395,1.0653395)"><path
       class="st4"
       d="m 44.2,9.3 -38.5,0 c -0.6,0 -1,-0.4 -1,-1 l 0,-3.4 c 0,-0.6 0.4,-1 1,-1 l 38.5,0 c 0.6,0 1,0.4 1,1 l 0,3.4 c 0,0.6 -0.5,1 -1,1 z"
       id="path100"
       inkscape:connector-curvature="0"
       style="display:inline;fill:none;stroke:#000000;stroke-width:3;stroke-linecap:round;stroke-miterlimit:10" /><path
       class="st4"
       d="m 42.2,38.4 -34.5,0 c -0.6,0 -1,-0.4 -1,-1 l 0,-28.1 36.5,0 0,28.1 c 0,0.6 -0.5,1 -1,1 z"
       id="path102"
       inkscape:connector-curvature="0"
       style="display:inline;fill:none;stroke:#000000;stroke-width:3;stroke-linecap:round;stroke-miterlimit:10" /><line
       class="st4"
       x1="25"
       x2="25"
       y1="42.799999"
       y2="38.400002"
       id="line104"
       style="display:inline;fill:none;stroke:#000000;stroke-width:3;stroke-linecap:round;stroke-miterlimit:10" /><circle
       class="st4"
       cx="25"
       cy="45.599998"
       r="2.2"
       id="circle106"
       style="display:inline;fill:none;stroke:#000000;stroke-width:3;stroke-linecap:round;stroke-miterlimit:10" /><g
       class="st1"
       id="g108"
       style="display:inline"><line
         class="st5"
         x1="28"
         x2="38.700001"
         y1="18.799999"
         y2="18.799999"
         id="line110"
         style="fill:none;stroke:#000000;stroke-width:3;stroke-linecap:round;stroke-miterlimit:10" /><line
         class="st5"
         x1="28"
         x2="38.700001"
         y1="23.9"
         y2="23.9"
         id="line112"
         style="fill:none;stroke:#000000;stroke-width:3;stroke-linecap:round;stroke-miterlimit:10" /><line
         class="st5"
         x1="28"
         x2="38.700001"
         y1="29"
         y2="29"
         id="line114"
         style="fill:none;stroke:#000000;stroke-width:3;stroke-linecap:round;stroke-miterlimit:10" /><path
         class="st5"
         d="m 17.8,23.4 -0.6,-5.2 c 0,-0.2 -0.1,-0.3 -0.3,-0.3 -3.5,0.2 -6.2,3.5 -5.4,7.1 0.5,2.2 2.3,4 4.5,4.5 3.7,0.8 6.9,-1.9 7.1,-5.3 0,-0.2 -0.1,-0.3 -0.3,-0.3 l -5,-0.5 z"
         id="path116"
         inkscape:connector-curvature="0"
         style="fill:none;stroke:#000000;stroke-width:3;stroke-linecap:round;stroke-miterlimit:10" /></g></g></svg>