<svg width="207" height="64" xmlns="http://www.w3.org/2000/svg"><path d="M191.493 52.096c-2.679 0-4.421-1.481-5.397-3.343 4.897-7.306 8.065-18.555 8.065-18.555 1.159 0 3.392 9.089 3.392 14.366 0 3.681-1.96 7.533-6.061 7.533zm8.686-35.483h-13.132c.908 7.184-5.188 21.239-7.565 26.481l-.014-.03s-3.685 9.007-8.746 9.007c-1.865 0-3.629-1.354-3.372-4.406.244-2.908 2.343-9.152 3.011-11.361 2.48-8.209-.558-14.824-11.105-14.824h-.002l.002-.007s.537-3.526.24-4.862h-9.319c.394 8.469-6.936 35.481-14.665 35.481-2.083 0-3.738-1.138-2.737-5.785.376-1.746 3.624-15.636 3.624-18.403 0-4.599-2.562-6.957-7.617-6.957-4.819 0-8.476 2.936-10.289 4.595l.626-2.907c1.553-6.887 2.813-12.555 3.334-15.015h-9.324c-.356 1.62-1.66 7.195-3.068 13.531h-.001l-.026.121-.389 1.76-.087.457-3.619 16.839c-2.746 4.449-8.037 11.757-13.165 11.757-3.887 0-3.469-5.286-2.846-8.149.962-4.425 2.051-9.415 3.112-14.279h6.128l1.897-8.698-6.128-.007A3510.224 3510.224 0 0 0 97.83 7.603l-9.37-.002c-.363 1.652-1.536 7.037-2.908 13.342l-5.587-.006-1.897 8.72h5.588l-2.771 12.74c-.786 1.344-5.898 9.689-11.669 9.689-1.865 0-3.538-1.371-3.282-4.422.244-2.908 2.344-9.152 3.011-11.361 2.48-8.209-.092-14.824-8.448-14.824 0 0 .946-3.011.873-4.868l-9.494.006c-.205 2.296-1.083 9.538-7.514 14.103l5.325 7.163s4.197-2.606 6.779-7.589c1.971.339 4.432 1.665 3.097 5.618 0 0-3.269 9.919-3.321 14.806-.08 7.655 5.518 10.457 10.424 10.457 6.606 0 11.004-3.275 13.534-6.022 1.215 3.359 4.137 6.022 9.987 6.022 5.293 0 9.497-2.689 12.459-5.523l-1.072 4.986h9.377c.536-2.454 2.932-14.128 4.545-21.189 1.311-5.74 5.618-9.644 9.458-9.644 1.237 0 1.695 1.405 1.461 2.49-.271 1.259-.794 4.243-1.748 8.145-1.185 4.853-1.824 8.817-1.824 11.353 0 7.101 5.044 9.381 10.283 9.381 14.308 0 21.424-22.153 23.692-30.978 1.932.02 5.754.994 4.161 5.716 0 0-3.269 9.919-3.321 14.806-.08 7.655 5.518 10.457 10.423 10.457 5.636 0 9.47-2.367 11.907-4.756 1.62 1.866 5.172 4.756 11.651 4.756 9.95 0 15.36-6.906 15.36-16.614 0-9.512-6.05-20.344-6.821-27.95zM17.865 55.03c.667-3.058 2.487-11.394 4.27-19.579 4.511.612 11.411 2.601 11.411 9.047 0 8.618-7.704 10.862-15.68 10.532zm17.691-23.778c6.264-3.653 10.258-9.73 10.258-17.156C45.814 1.596 33.737 0 29.569 0 13.005 0 2.065 11.199 1.186 12.209l5.082 6.947c.846-.879 9.834-11.11 22.129-11.11 4.253 0 8.256 1.922 8.256 7.395 0 3.654-2.554 8.965-12.776 12.009 1.118-5.142 2.029-9.345 2.344-10.83l-9.379.006c-.738 3.357-5.755 26.44-8.002 36.78-4.533-1.509-7.004-3.504-7.004-3.504L0 58.478s6.83 4.739 16.356 5.435c11.592.848 26.505-4.348 26.505-19.496 0-6.779-3.383-10.791-7.305-13.164z" fill="#272a39"/></svg>